<svg xmlns="http://www.w3.org/2000/svg" width="40" height="40" viewBox="0 0 960 960"><defs><style>.a{fill:#fbbc05;}.b{fill:#ea4335;}.c{fill:#34a853;}.d{fill:#4285f4;}</style></defs><path class="a" d="M221,410.6,410.6,739,536.31,956.73C351.66,978.45,163.23,891.19,64.37,720A478.37,478.37,0,0,1,3.27,536.31Z"/><path class="b" d="M221,410.6,549.4,221,423.69,3.27A478.37,478.37,0,0,0,240,64.37C68.81,163.23-18.45,351.66,3.27,536.31Z"/><path class="c" d="M549.4,221,739,549.4,956.73,423.69A478.37,478.37,0,0,0,895.63,240C796.77,68.81,608.34-18.45,423.69,3.27Z"/><path class="d" d="M536.31,956.73,410.6,739,739,549.4,956.73,423.69C978.45,608.34,891.19,796.77,720,895.63A478.37,478.37,0,0,1,536.31,956.73Z"/></svg>
